<svg width="121" height="18" viewBox="0 0 121 18" fill="none" xmlns="http://www.w3.org/2000/svg">
<g id="logo">
<g id="Vector">
<path d="M18.3982 2.45701C18.2505 1.62919 17.5412 1.13954 16.4962 1.13954H15.3405C14.4328 1.13954 13.8223 1.47478 13.4764 2.16582L10.2343 9.06782L6.9932 2.17589C6.64622 1.47478 6.03727 1.13913 5.12659 1.13913H3.97033C2.92891 1.13913 2.21706 1.62751 2.06843 2.4482L0.029826 15.2603C0 15.4189 0 15.5322 0 15.6006C0 16.3793 0.710355 16.9441 1.68716 16.9441H2.44722C3.39569 16.9441 4.0961 16.4456 4.23032 15.6719L5.399 8.24881L8.06842 13.9982C8.21755 14.3419 8.6555 14.9339 9.86494 14.9339H10.6026C11.8126 14.9339 12.25 14.3406 12.4026 13.9873L15.0681 8.24503L16.2353 15.6656C16.374 16.4456 17.0729 16.9445 18.0184 16.9445H18.7799C19.7577 16.9445 20.4666 16.3797 20.4666 15.601C20.4666 15.5326 20.4666 15.4193 20.4373 15.2607L18.3982 2.45701Z" fill="#FDB913"/>
<path d="M31.3098 0.849121C28.3705 0.849121 25.9153 1.6996 24.2073 3.31035C22.6628 4.76753 21.8117 6.79827 21.8117 9.03041C21.8117 11.239 22.6628 13.2622 24.2063 14.727C25.9223 16.3537 28.3784 17.2138 31.3098 17.2138C34.2601 17.2138 36.7232 16.3537 38.4323 14.7257C39.9638 13.2664 40.8074 11.2441 40.8074 9.03041C40.8074 6.7924 39.9638 4.76165 38.4318 3.31035C36.7302 1.6996 34.2671 0.849121 31.3098 0.849121ZM31.3098 14.0515C28.2218 14.0515 26.1469 12.0333 26.1469 9.03082C26.1469 6.0531 28.2218 4.05215 31.3098 4.05215C34.445 4.05215 36.4722 6.00653 36.4722 9.03082C36.4727 12.0807 34.445 14.0515 31.3098 14.0515Z" fill="#FDB913"/>
<path d="M54.202 13.7405H47.2193L55.417 3.7983C55.6794 3.47061 55.7933 3.19411 55.7933 2.89496C55.7933 2.76153 55.7614 2.48713 55.5492 2.1607L55.3792 1.89511L55.3722 1.88253L55.3608 1.86994C54.885 1.22254 54.2547 1.13946 53.7591 1.13946H43.9131C42.9174 1.13946 42.2493 1.68784 42.2493 2.50265V2.97845C42.2493 3.80753 42.902 4.34291 43.9131 4.34291H49.9673L41.789 14.283C41.527 14.6128 41.4137 14.8889 41.4137 15.1868C41.4137 15.3194 41.4445 15.5913 41.6552 15.9198L41.8277 16.1883L41.8367 16.2005L41.8451 16.2118C42.3214 16.8605 42.9512 16.9436 43.4483 16.9436H54.2025C55.2131 16.9436 55.8663 16.4082 55.8663 15.58V15.105C55.8663 14.2889 55.1977 13.7405 54.202 13.7405Z" fill="#FDB913"/>
<path d="M69.9966 13.7405H63.0104L71.2111 3.7983C71.472 3.4681 71.5859 3.1916 71.5859 2.89496C71.5859 2.76153 71.5541 2.48713 71.3408 2.1607L71.1723 1.89511L71.1638 1.88253L71.1539 1.8712C70.6807 1.22253 70.0493 1.13946 69.5522 1.13946H59.7072C58.7115 1.13946 58.0434 1.68784 58.0434 2.50265V2.97845C58.0434 3.80753 58.6961 4.34291 59.7072 4.34291H65.7604L57.5821 14.283C57.3211 14.6107 57.2068 14.8872 57.2068 15.1868C57.2068 15.3206 57.2391 15.5921 57.4498 15.9211L57.6213 16.1883L57.6298 16.2005L57.6397 16.2118C58.1155 16.8605 58.7443 16.9436 59.2399 16.9436H69.9971C71.0072 16.9436 71.6594 16.4082 71.6594 15.58V15.105C71.6589 14.2889 70.9923 13.7405 69.9966 13.7405Z" fill="#FDB913"/>
<path d="M89.2603 15.1021L89.2558 15.0924L83.3383 2.13805C83.0177 1.48183 82.3903 1.13946 81.5149 1.13946H80.6321C79.526 1.13946 79.0329 1.67819 78.8152 2.12923L72.8923 15.0924L72.8868 15.105L72.8808 15.1188L72.8754 15.1323C72.8212 15.2728 72.7551 15.4461 72.7551 15.6848C72.7551 16.4384 73.3938 16.944 74.3443 16.944H75.252C76.104 16.944 76.6682 16.6087 76.9774 15.9215L78.0845 13.4829H84.0382L85.1691 15.9248C85.4798 16.61 86.045 16.9444 86.8931 16.9444H87.8008C88.7527 16.9444 89.392 16.4388 89.392 15.6853C89.392 15.4331 89.3189 15.2481 89.2632 15.1121L89.2603 15.1021ZM79.5703 10.2795L81.0745 7.02483L82.5768 10.2795H79.5703Z" fill="#FDB913"/>
<path d="M101.725 11.1241L101.718 11.1157L101.712 11.1094C101.666 11.0536 101.615 10.9948 101.559 10.9348C103.646 10.0063 104.864 8.32593 104.864 6.31575C104.864 2.88069 102.272 1.13946 97.1598 1.13946H93.1562C92.0606 1.13946 91.2951 1.77637 91.2951 2.68853V15.5602C91.2951 16.3746 91.9905 16.9436 92.9852 16.9436H93.8447C94.8389 16.9436 95.5328 16.3746 95.5328 15.5602V11.6582H97.1191C97.3368 11.8285 97.5704 12.0736 97.9035 12.4768L100.77 16.1825C101.157 16.6868 101.726 16.9436 102.463 16.9436H103.322C104.258 16.9436 104.938 16.4048 104.938 15.663C104.938 15.4109 104.801 15.092 104.569 14.8079L101.725 11.1241ZM97.7479 8.4753H95.5323V4.34249H97.0609C100.578 4.34249 100.578 5.76485 100.578 6.23225C100.578 8.31334 98.4115 8.4753 97.7479 8.4753Z" fill="#FDB913"/>
<path d="M119.237 1.13946H107.302C106.316 1.13946 105.541 1.74658 105.541 2.5228V2.95789C105.541 3.72152 106.331 4.34249 107.302 4.34249H111.14V15.5602C111.14 16.3746 111.834 16.9436 112.83 16.9436H113.689C114.683 16.9436 115.377 16.3746 115.377 15.5602V4.34291H119.237C120.242 4.34291 121 3.74711 121 2.95831V2.52322C121 1.734 120.242 1.13946 119.237 1.13946Z" fill="#FDB913"/>
</g>
</g>
</svg>
