<svg width="17" height="18" viewBox="0 0 17 18" fill="none" xmlns="http://www.w3.org/2000/svg">
<rect width="17" height="18" fill="#E5E5E5"/>
<g id="logged in" clip-path="url(#clip0_0_1)">
<rect width="1920" height="1451" transform="translate(-67 -1389)" fill="#41444D"/>
<g id="Frame 18">
<g clip-path="url(#clip1_0_1)">
<rect x="-59" y="-599" width="1904" height="661" fill="#313540"/>
<g id="contact">
<g id="contact_2">
<path id="Vector" d="M3.41889 7.76596C4.77889 10.5872 6.97 12.8901 9.64278 14.3356L11.7206 12.1424C11.9756 11.8732 12.3533 11.7835 12.6839 11.9031C13.7417 12.272 14.8844 12.4714 16.0556 12.4714C16.575 12.4714 17 12.92 17 13.4683V16.9475C17 17.4958 16.575 17.9444 16.0556 17.9444C7.18722 17.9444 0 10.3579 0 0.996914C0 0.448611 0.425 0 0.944444 0H4.25C4.76944 0 5.19444 0.448611 5.19444 0.996914C5.19444 2.24306 5.38333 3.43935 5.73278 4.5559C5.83667 4.90482 5.76111 5.29361 5.49667 5.57275L3.41889 7.76596Z" fill="#FDB913"/>
</g>
</g>
</g>
<rect x="-58.5" y="-598.5" width="1903" height="660" stroke="#313540"/>
</g>
</g>
<defs>
<clipPath id="clip0_0_1">
<rect width="1920" height="1451" fill="white" transform="translate(-67 -1389)"/>
</clipPath>
<clipPath id="clip1_0_1">
<rect x="-59" y="-599" width="1904" height="661" fill="white"/>
</clipPath>
</defs>
</svg>
